<svg width="14" height="20" viewBox="0 0 14 20" fill="none" xmlns="http://www.w3.org/2000/svg">
<path d="M14 1.39752C14 0.612949 13.3465 0 12.5673 0H1.43267C0.628364 0 0 0.637467 0 1.39752L0.0749512 18.2169C0.0749512 19.0014 0.72845 19.6144 1.50762 19.6144L12.5673 19.6143C13.3716 19.6143 14 18.9769 14 18.2168V1.39752ZM5.45378 0.858129H8.62074C8.69614 0.858129 8.77155 0.907165 8.77155 0.980719C8.77155 1.05427 8.69614 1.10331 8.62074 1.10331H5.45378C5.37838 1.10331 5.30298 1.05427 5.30298 0.980719C5.32811 0.907165 5.37838 0.858129 5.45378 0.858129ZM7.03726 19.2711C6.63511 19.2711 6.30836 18.9524 6.30836 18.5601C6.30836 18.1678 6.63511 17.8491 7.03726 17.8491C7.43941 17.8491 7.76616 18.1678 7.76616 18.5601C7.76616 18.9524 7.43941 19.2711 7.03726 19.2711ZM0.653046 17.5304L0.578095 2.08403H13.447V17.5303L0.653046 17.5304Z" fill="#403333"/>
</svg>
