<svg width="10" height="20" viewBox="0 0 10 20" fill="none" xmlns="http://www.w3.org/2000/svg">
<path d="M10 1.39752C10 0.612949 9.35 0 8.575 0H1.425C0.625 0 0 0.637467 0 1.39752V18.2169C0 19.0014 0.65 19.6144 1.425 19.6144H8.575C9.375 19.6144 10 18.9769 10 18.2169V1.39752ZM3.4 0.858129H6.55C6.625 0.858129 6.7 0.907165 6.7 0.980719C6.7 1.05427 6.625 1.10331 6.55 1.10331H3.4C3.325 1.10331 3.25 1.05427 3.25 0.980719C3.275 0.907165 3.325 0.858129 3.4 0.858129ZM4.975 19.2711C4.575 19.2711 4.25 18.9524 4.25 18.5601C4.25 18.1678 4.575 17.8491 4.975 17.8491C5.375 17.8491 5.7 18.1678 5.7 18.5601C5.7 18.9524 5.375 19.2711 4.975 19.2711ZM9.425 17.5304H0.575V2.08403H9.45V17.5304H9.425Z" fill="#403333"/>
</svg>
