<svg width="27" height="20" viewBox="0 0 27 20" fill="none" xmlns="http://www.w3.org/2000/svg">
<path d="M26.4375 0H0.5625C0.413318 7.70605e-06 0.270248 0.06124 0.164761 0.170228C0.0592731 0.279216 7.45854e-06 0.427034 0 0.581167L0 16.2727C7.45854e-06 16.4268 0.0592731 16.5746 0.164761 16.6836C0.270248 16.7926 0.413318 16.8538 0.5625 16.8538H11.8125V17.8709H7.03125C6.88207 17.8709 6.739 17.9321 6.63351 18.0411C6.52802 18.1501 6.46876 18.2979 6.46875 18.452V19.0332C6.46876 19.1873 6.52802 19.3352 6.63351 19.4442C6.739 19.5531 6.88207 19.6144 7.03125 19.6144H19.9688C20.1179 19.6144 20.261 19.5531 20.3665 19.4442C20.472 19.3352 20.5312 19.1873 20.5312 19.0332V18.452C20.5312 18.2979 20.472 18.1501 20.3665 18.0411C20.261 17.9321 20.1179 17.8709 19.9688 17.8709H15.1875V16.8538H26.4375C26.5867 16.8538 26.7298 16.7926 26.8352 16.6836C26.9407 16.5746 27 16.4268 27 16.2727V0.581167C27 0.427034 26.9407 0.279216 26.8352 0.170228C26.7298 0.06124 26.5867 7.70605e-06 26.4375 0ZM14.0625 17.435H12.9375V16.8538H14.0625V17.435ZM1.125 15.6915V1.16233H25.875V15.6915H1.125Z" fill="#403333"/>
</svg>
