<svg width="89" height="117" viewBox="0 0 89 117" fill="none" xmlns="http://www.w3.org/2000/svg">
<g filter="url(#filter0_d)">
<path d="M10.4475 95.1945L4 24.2733H74.8465L68.3922 95.1834L39.3799 103.071L10.4475 95.1945Z" fill="black"/>
<path d="M39.4233 97.0422L62.8666 90.6681L68.3823 30.0722H39.4233V97.0422Z" fill="black"/>
<path d="M39.4232 56.3758H27.6869L26.8764 47.4688H39.4232V38.7705H39.3926H17.1834L17.3957 41.1041L19.5756 65.0739H39.4232V56.3758Z" fill="#EBEBEB"/>
<path d="M39.4232 78.966L39.3843 78.9761L29.5066 76.3604L28.8752 69.4232H24.0754H19.9719L21.2144 83.0806L39.3824 88.0269L39.4232 88.0158V78.966Z" fill="#EBEBEB"/>
<path d="M10.5916 5H15.0988V9.36725H19.2219V5H23.7293V18.2251H19.2221V13.7966H15.099V18.2251H10.5918V5H10.5916Z" fill="black"/>
<path d="M29.6564 9.38564H25.6885V5H38.1338V9.38564H34.1641V18.2251H29.6566V9.38564H29.6564Z" fill="black"/>
<path d="M40.109 5H44.8088L47.6998 9.6469L50.5879 5H55.2895V18.2251H50.8008V11.67L47.6998 16.3723H47.6223L44.5191 11.67V18.2251H40.109V5Z" fill="black"/>
<path d="M57.5326 5H62.0412V13.8536H68.3797V18.2251H57.5326V5Z" fill="black"/>
<path d="M39.3926 56.3759V65.0739H50.3141L49.2846 76.3548L39.3926 78.9733V88.0226L57.575 83.0806L57.7084 81.611L59.7926 58.7116L60.009 56.3759H57.6189H39.3926Z" fill="white"/>
<path d="M39.3926 38.7705V44.1728V47.4475V47.4688H60.7875H60.816L60.994 45.5136L61.3981 41.1041L61.6102 38.7705H39.3926Z" fill="white"/>
</g>
<defs>
<filter id="filter0_d" x="0" y="0" width="88.8465" height="116.071" filterUnits="userSpaceOnUse" color-interpolation-filters="sRGB">
<feFlood flood-opacity="0" result="BackgroundImageFix"/>
<feColorMatrix in="SourceAlpha" type="matrix" values="0 0 0 0 0 0 0 0 0 0 0 0 0 0 0 0 0 0 127 0"/>
<feOffset dx="5" dy="4"/>
<feGaussianBlur stdDeviation="4.5"/>
<feColorMatrix type="matrix" values="0 0 0 0 0 0 0 0 0 0 0 0 0 0 0 0 0 0 0.25 0"/>
<feBlend mode="normal" in2="BackgroundImageFix" result="effect1_dropShadow"/>
<feBlend mode="normal" in="SourceGraphic" in2="effect1_dropShadow" result="shape"/>
</filter>
</defs>
</svg>
