<svg width="66" height="79" viewBox="0 0 66 79" fill="none" xmlns="http://www.w3.org/2000/svg">
<path d="M32.7937 34.5623C36.1028 34.5623 38.7855 31.9314 38.7855 28.686C38.7855 25.4406 36.1028 22.8098 32.7937 22.8098C29.4845 22.8098 26.8019 25.4406 26.8019 28.686C26.8019 31.9314 29.4845 34.5623 32.7937 34.5623Z" fill="#61DAFB"/>
<path d="M32.7937 50.2953C37.4969 54.7815 42.1357 57.4352 45.8725 57.4352C47.0966 57.4352 48.2563 57.1825 49.2227 56.6138C52.573 54.7183 53.7971 49.9794 52.6374 43.2186C52.4441 42.0181 52.1864 40.8176 51.8643 39.5539C53.1528 39.1748 54.3125 38.7956 55.4722 38.4165C61.9794 35.9523 65.5873 32.5403 65.5873 28.8124C65.5873 25.0213 61.9794 21.6093 55.4722 19.2083C54.3125 18.766 53.1528 18.3869 51.8643 18.0709C52.1864 16.8072 52.4441 15.6067 52.6374 14.4062C53.7327 7.51903 52.5085 2.71696 49.1583 0.821406C48.1919 0.252741 47.0322 0 45.8081 0C42.1357 0 37.4325 2.65377 32.7292 7.13991C28.0905 2.65377 23.4517 0 19.7149 0C18.4907 0 17.331 0.252741 16.3646 0.821406C13.0144 2.71696 11.7903 7.45584 12.95 14.2166C13.1432 15.4172 13.401 16.6177 13.7231 17.8814C12.4345 18.2605 11.2748 18.6396 10.1151 19.0187C3.60795 21.4829 0 24.8949 0 28.6228C0 32.414 3.60795 35.8259 10.1151 38.227C11.2748 38.6693 12.4345 39.0484 13.7231 39.3643C13.401 40.628 13.1432 41.8285 12.95 43.029C11.8547 49.7898 13.0788 54.5919 16.3646 56.4243C17.331 56.993 18.4907 57.2457 19.7149 57.2457C23.4517 57.3721 28.0905 54.7183 32.7937 50.2953ZM29.1857 41.7653C30.3454 41.8285 31.5695 41.8285 32.7937 41.8285C34.0178 41.8285 35.2419 41.8285 36.4016 41.7653C35.2419 43.2818 34.0178 44.6719 32.7937 45.9987C31.5695 44.6719 30.3454 43.2818 29.1857 41.7653ZM21.1967 35.2573C21.841 36.3314 22.4208 37.3424 23.1295 38.3534C21.1323 38.1006 19.2639 37.7847 17.4599 37.4056C18.0397 35.6996 18.684 33.9304 19.4571 32.1612C19.9726 33.1722 20.5524 34.2463 21.1967 35.2573ZM17.4599 20.0297C19.2639 19.6506 21.1323 19.3346 23.1295 19.0819C22.4852 20.0929 21.841 21.1038 21.1967 22.178C20.5524 23.2521 19.9726 24.2631 19.4571 25.3372C18.6196 23.5049 17.9753 21.7357 17.4599 20.0297ZM21.0034 28.686C21.841 26.98 22.743 25.274 23.7738 23.568C24.7402 21.9252 25.8355 20.2824 26.9308 18.6396C28.8636 18.5132 30.7964 18.45 32.7937 18.45C34.8554 18.45 36.7882 18.5132 38.6566 18.6396C39.8163 20.2824 40.8471 21.9252 41.8135 23.568C42.8444 25.274 43.7464 26.98 44.5839 28.686C43.7464 30.392 42.8444 32.098 41.8135 33.804C40.8471 35.4468 39.7519 37.0896 38.6566 38.7325C36.7238 38.8588 34.7909 38.922 32.7937 38.922C30.732 38.922 28.7992 38.8588 26.9308 38.7325C25.7711 37.0896 24.7402 35.4468 23.7738 33.804C22.743 32.098 21.841 30.392 21.0034 28.686ZM46.1946 25.274L44.4551 22.1148C43.8108 21.0406 43.2309 20.0297 42.5222 19.0187C44.5195 19.2715 46.3879 19.5874 48.1919 19.9665C47.612 21.7357 46.9678 23.5049 46.1946 25.274ZM46.1946 32.098C46.9678 33.8672 47.612 35.6364 48.1919 37.3424C46.3879 37.7215 44.5195 38.0374 42.5222 38.2902C43.1665 37.2792 43.8108 36.2682 44.4551 35.1941C45.0349 34.2463 45.6148 33.1722 46.1946 32.098ZM47.6765 54.0233C47.161 54.3392 46.5168 54.4655 45.8081 54.4655C42.6511 54.4655 38.721 51.9381 34.8554 48.147C36.7238 46.1883 38.5277 43.9768 40.3317 41.5126C43.3598 41.2599 46.259 40.8176 48.965 40.1857C49.2871 41.323 49.4804 42.4604 49.6737 43.5977C50.5757 48.9684 49.867 52.8227 47.6765 54.0233ZM51.0267 20.7247C58.2426 22.7466 62.5592 25.8427 62.5592 28.686C62.5592 31.1502 59.5956 33.6145 54.3769 35.5732C53.3461 35.9523 52.1864 36.3314 51.0267 36.6474C50.1891 34.0568 49.1583 31.403 47.8697 28.686C49.1583 25.9691 50.2536 23.3153 51.0267 20.7247ZM45.8725 2.90651C46.5812 2.90651 47.161 3.03288 47.7409 3.34881C49.867 4.54933 50.6401 8.34043 49.7381 13.7743C49.5449 14.8485 49.2871 15.9858 49.0294 17.1863C46.3235 16.6177 43.4242 16.1754 40.3961 15.8595C38.6566 13.3952 36.7882 11.1838 34.9198 9.22502C38.7854 5.4971 42.7155 2.90651 45.8725 2.90651ZM36.4016 15.6067C35.2419 15.5435 34.0178 15.5435 32.7937 15.5435C31.5695 15.5435 30.3454 15.5435 29.1857 15.6067C30.3454 14.0903 31.5695 12.7002 32.7937 11.3733C34.0178 12.7002 35.2419 14.1535 36.4016 15.6067ZM17.9109 3.34881C18.4263 3.03288 19.0706 2.90651 19.7793 2.90651C22.9362 2.90651 26.8663 5.43392 30.732 9.22502C28.8636 11.1838 27.0596 13.3952 25.2556 15.8595C22.2275 16.1122 19.3283 16.5545 16.6223 17.1863C16.3002 16.049 16.1069 14.9117 15.9136 13.7743C15.0116 8.40362 15.7203 4.61251 17.9109 3.34881ZM14.5606 36.6474C7.34475 34.6254 3.0281 31.5294 3.0281 28.686C3.0281 26.2218 5.99177 23.7576 11.2104 21.7989C12.2413 21.4197 13.401 21.0406 14.5606 20.7247C15.3982 23.3153 16.429 25.9691 17.7176 28.686C16.429 31.403 15.3338 34.1199 14.5606 36.6474ZM15.9136 43.5977C16.1069 42.5236 16.3646 41.3862 16.6223 40.1857C19.3283 40.7544 22.2275 41.1967 25.2556 41.5126C26.9952 43.9768 28.8636 46.1883 30.732 48.147C26.8663 51.875 22.9362 54.4655 19.7793 54.4655C19.0706 54.4655 18.4907 54.3392 17.9109 54.0233C15.7203 52.8227 15.0116 48.9684 15.9136 43.5977ZM13.2077 69.63C14.6251 67.924 14.6895 66.0284 13.9164 64.1329C13.1432 62.2373 11.5325 61.3527 9.53529 61.2895C7.15147 61.2264 4.70322 61.2895 2.3194 61.2895H1.8684V77.6545H3.80123V71.4623H6.82933C7.2159 71.4623 7.53803 71.5887 7.73132 71.9046L11.597 77.7808C11.6614 77.9072 11.8547 78.0968 11.9835 78.0968H14.4962C12.95 75.7589 11.4681 73.5474 9.92186 71.2728C11.2748 71.0832 12.4345 70.6409 13.2077 69.63ZM3.80123 69.5036V63.2483H4.50993C5.99177 63.2483 7.53803 63.1851 9.01987 63.3115C10.7594 63.3746 11.9835 64.7015 11.9835 66.4075C11.9835 68.1135 10.5661 69.4404 8.82659 69.5036C7.28032 69.5668 5.73406 69.5036 3.80123 69.5036ZM28.7347 70.325C27.7039 65.9021 23.5805 64.7647 20.4236 66.1548C17.9753 67.2289 16.88 69.314 16.8156 71.9046C16.7512 73.8634 17.331 75.6326 18.8773 76.9594C20.6168 78.4759 22.743 78.6654 24.9335 78.2863C26.1576 78.0336 27.2529 77.4649 28.0905 76.5803C27.7683 76.138 27.4462 75.6957 27.124 75.3166C25.3201 76.8331 23.3228 77.3386 21.1323 76.3276C19.7149 75.6326 19.0062 73.9266 18.8773 72.6629H28.8636V71.8415C28.928 71.2728 28.8636 70.7673 28.7347 70.325ZM19.0062 71.336C18.8129 69.4404 20.7457 67.4185 22.8718 67.4185C25.3201 67.3553 26.8663 68.8086 26.9308 71.336H19.0062ZM38.7854 65.8389C37.819 65.6493 36.7882 65.5861 35.8218 65.6493C34.2755 65.7757 32.9225 66.4707 31.8273 67.608C32.1494 68.0503 32.4071 68.4926 32.7937 68.9981C32.9225 68.8717 33.0514 68.7454 33.1802 68.6822C34.2111 67.7344 35.4352 67.2289 36.917 67.3553C38.0767 67.4185 39.172 67.7976 39.4941 68.9349C39.7519 69.8195 39.6874 70.7673 39.7519 71.7151C39.5586 71.7151 39.4941 71.6519 39.4297 71.5887C37.8835 70.325 36.1439 70.0723 34.2755 70.5146C32.536 70.9569 31.4407 72.2837 31.3118 73.9897C31.183 75.9485 32.085 77.4017 33.8245 78.0968C34.9198 78.5391 36.1439 78.5391 37.3036 78.2863C38.2056 78.0968 38.5922 77.5913 39.8807 76.8963V77.7177H41.6847C41.6847 75.1903 41.7491 72.0942 41.6847 69.1877C41.6847 67.3553 40.5894 66.218 38.7854 65.8389ZM39.6874 73.8002C39.623 73.9897 39.6874 74.1793 39.6874 74.3689C39.6874 75.6957 39.3653 76.138 38.0767 76.6435C37.1748 76.9594 36.2083 77.0858 35.2419 76.7699C34.1467 76.454 33.3735 75.5062 33.3735 74.432C33.3091 73.3579 34.0178 72.2837 35.1131 71.9678C36.5949 71.4623 37.9479 71.7783 39.172 72.6629C39.5586 72.9788 39.8163 73.2947 39.6874 73.8002ZM49.7381 67.5449C51.4133 67.0394 52.9595 67.3553 54.1192 68.7454L54.3125 68.8717C54.7635 68.4926 55.1501 68.1135 55.6655 67.6712C55.4722 67.4817 55.4078 67.3553 55.2789 67.1658C53.4105 65.207 49.7381 64.9543 47.4832 66.5339C44.3262 68.8086 44.3906 73.2315 45.9369 75.5694C47.4187 77.7808 49.5449 78.5391 52.0575 78.2231C53.5394 78.0336 54.7635 77.3385 55.7299 76.138C55.2789 75.7589 54.8279 75.3798 54.3769 74.9375C54.2481 75.0639 54.1836 75.1271 54.1192 75.2534C52.3797 77.149 49.4804 76.9594 47.9342 74.9375C47.0322 73.737 46.8389 72.3469 47.0966 70.9569C47.2255 69.3772 48.063 68.1135 49.7381 67.5449ZM63.1391 76.138C63.0102 76.2012 62.9458 76.2644 62.9458 76.2644C62.4304 76.6435 61.915 76.7067 61.3351 76.5171C60.7553 76.2644 60.6908 75.7589 60.6264 75.2534V68.0503C60.6264 67.924 60.6264 68.1767 60.6908 67.5449H63.1391V65.6493H60.562V62.4901H58.6292V65.9021H56.954C56.8252 65.9021 56.6319 66.0284 56.6319 66.1548C56.5675 66.5971 56.6319 66.913 56.6319 67.5449H58.6936V75.6326C58.6936 76.6435 58.9513 77.5281 59.8533 78.0336C60.8197 78.6022 62.6881 78.4759 63.5257 77.7808C63.6545 77.7177 63.7189 77.4649 63.7189 77.4017C63.5257 77.0226 63.3324 76.5803 63.1391 76.138Z" fill="#61DAFB"/>
</svg>
