<svg width="69" height="79" viewBox="0 0 69 79" fill="none" xmlns="http://www.w3.org/2000/svg">
<path d="M14.9592 59.8061C14.7297 59.8061 14.5011 59.8706 14.3026 59.9993C14.104 60.128 13.922 60.35 13.922 60.6349C13.922 60.6724 13.8995 60.7565 13.9743 60.9032L13.9548 60.8567L17.9456 73.5545C18.017 73.7927 18.1885 73.9748 18.3809 74.0792C18.5733 74.1837 18.785 74.2235 18.9901 74.2235C19.4262 74.2235 19.905 74.0194 20.0516 73.5593V73.5581L24.0387 60.8126V60.7661C24.0387 60.8304 24.0582 60.7933 24.0582 60.654C24.0582 60.3643 23.8695 60.1512 23.6679 60.0172C23.4663 59.8833 23.2289 59.8062 22.9821 59.8062C22.6776 59.8062 22.3274 59.9878 22.2099 60.3332L22.2075 60.3368L18.9889 70.8714L15.7581 60.3558C15.7102 60.1679 15.5812 60.0105 15.431 59.9229C15.2809 59.8353 15.1171 59.806 14.9592 59.806L14.9592 59.8061ZM46.7443 60.4608C46.109 60.4608 45.5733 60.9381 45.5733 61.5353C45.5733 62.1325 46.1007 62.6264 46.7443 62.6264C47.3757 62.6264 47.8776 62.1232 47.8776 61.5353C47.8776 60.9474 47.367 60.4608 46.7443 60.4608ZM37.3878 64.5261C35.216 64.5261 33.4274 66.2304 33.4274 68.2789V70.3777C33.4274 71.525 33.8936 72.5083 34.6847 73.1872C35.4759 73.8661 36.5802 74.2414 37.8462 74.2414C38.7812 74.2414 39.5434 74.0361 40.0884 73.7573C40.3609 73.6178 40.5798 73.4615 40.7413 73.291C40.9029 73.1205 41.0222 72.934 41.0222 72.7007C41.0222 72.4865 40.9381 72.301 40.8021 72.1343C40.6661 71.9676 40.4519 71.8147 40.1759 71.8147C39.9765 71.8147 39.8234 71.897 39.6907 71.9769C39.558 72.0567 39.4334 72.145 39.2834 72.2297C38.9834 72.399 38.5859 72.5636 37.8839 72.5636C37.1023 72.5636 36.4505 72.345 36.0016 71.9781C35.5526 71.6111 35.2915 71.1017 35.2915 70.4338V70.045H39.298C39.7253 70.045 40.2004 70.0456 40.6112 69.7886C41.0221 69.5314 41.2715 69.02 41.2715 68.2419C41.2715 66.0872 39.4382 64.5261 37.3877 64.5261L37.3878 64.5261ZM52.4451 64.5261C51.2908 64.5261 50.4418 64.8924 49.8965 65.4431C49.3511 65.9938 49.1158 66.7103 49.1158 67.3798C49.1158 68.233 49.4673 68.8444 49.9706 69.2365C50.474 69.6285 51.1002 69.8258 51.6961 70.0021C52.2919 70.1783 52.8623 70.3348 53.2452 70.5661C53.6281 70.7975 53.8337 71.0477 53.8337 71.5762C53.8337 71.8598 53.7468 72.0856 53.5115 72.2702C53.2762 72.4548 52.8584 72.6005 52.1776 72.6005C51.3722 72.6005 50.922 72.4057 50.5944 72.207C50.4306 72.1076 50.2986 72.0045 50.1627 71.9124C50.0269 71.8203 49.8728 71.7204 49.6569 71.7204C49.397 71.7204 49.2054 71.8774 49.089 72.04C48.9726 72.2026 48.9054 72.3873 48.9054 72.5874C48.9054 72.8347 49.0282 73.0522 49.2021 73.2409C49.3761 73.4295 49.6114 73.5974 49.9001 73.7441C50.4774 74.0375 51.2723 74.2414 52.2165 74.2414C53.2415 74.2414 54.0845 73.996 54.6812 73.5199C55.2778 73.0439 55.6029 72.3361 55.6029 71.5201C55.6029 70.5984 55.2613 69.9356 54.7578 69.4976C54.2544 69.0596 53.6188 68.8338 53.0142 68.6521C52.4096 68.4704 51.8277 68.329 51.4383 68.1298C51.0489 67.9306 50.8656 67.7469 50.8656 67.3237C50.8656 67.0948 50.959 66.8068 51.1963 66.5796C51.4337 66.3524 51.8209 66.1682 52.4646 66.1682C52.9788 66.1682 53.3611 66.284 53.6671 66.4067C53.8201 66.468 53.9531 66.5321 54.0793 66.5856C54.2055 66.639 54.3219 66.6917 54.4891 66.6917C54.7911 66.6917 54.998 66.4963 55.1214 66.3149C55.2447 66.1334 55.3159 65.9544 55.3159 65.7496C55.3159 65.4931 55.1531 65.3112 54.973 65.1748C54.7929 65.0384 54.5671 64.9302 54.3055 64.8362C53.7821 64.6481 53.1147 64.5261 52.445 64.5261L52.4451 64.5261ZM25.1413 64.6394C24.6363 64.6394 24.2001 64.9499 24.2001 65.4121V70.4146C24.2001 72.444 25.9594 74.2414 28.141 74.2414C30.2859 74.2414 32.0819 72.4651 32.0819 70.4146V65.3943C32.0819 65.1629 31.9521 64.9622 31.7816 64.835C31.6111 64.7077 31.3944 64.6394 31.159 64.6394C30.9237 64.6394 30.7058 64.7068 30.5316 64.8314C30.3574 64.956 30.2179 65.1551 30.2179 65.3943V70.4146C30.2179 71.4784 29.2727 72.5075 28.1411 72.5075C26.9907 72.5075 26.0643 71.4601 26.0643 70.4146V65.4121C26.0643 65.1725 25.9308 64.9877 25.7651 64.8564C25.5995 64.725 25.3831 64.6393 25.1413 64.6393L25.1413 64.6394ZM46.7449 64.6394C46.5088 64.6394 46.2901 64.6989 46.1163 64.8278C45.9424 64.9566 45.8232 65.1686 45.8232 65.3942V74.6112C45.8232 75.3029 45.7738 75.883 45.6189 76.2342C45.4641 76.5854 45.2814 76.741 44.7592 76.741C44.298 76.741 43.9129 77.1363 43.9129 77.6092C43.9129 77.8057 43.9776 78.0215 44.1415 78.1899C44.3055 78.3584 44.56 78.457 44.854 78.457C45.8466 78.457 46.606 78.0254 47.0586 77.3241C47.5111 76.6229 47.6872 75.6848 47.6872 74.6112V65.3942C47.6872 65.154 47.5473 64.945 47.3699 64.8218C47.1924 64.6985 46.9744 64.6393 46.7449 64.6393L46.7449 64.6394ZM37.3685 66.1491C38.6082 66.1491 39.4453 67.1669 39.4453 68.2037C39.4453 68.3167 39.4329 68.3907 39.421 68.4244C39.409 68.458 39.4102 68.4537 39.393 68.4649C39.3586 68.4874 39.1673 68.5353 38.8008 68.5353H35.2916V68.1286C35.2916 67.0435 36.2158 66.1491 37.3684 66.1491L37.3685 66.1491ZM43.2901 71.8707C42.613 71.8707 42.0997 72.4202 42.0997 73.056C42.0997 73.6668 42.6053 74.2235 43.2901 74.2235C43.9388 74.2235 44.4611 73.6837 44.4611 73.056C44.4611 72.4046 43.9302 71.8707 43.2901 71.8707Z" fill="#35495E"/>
<path d="M14.4692 0.240417L26.7519 0.244973L34.7808 13.315L42.7814 0.24602L55.0533 0.242826L34.8422 34.6252L14.4692 0.240417Z" fill="#35495E"/>
<path d="M1.07361 0.332461L14.4584 0.242859L34.8303 34.6268L55.0425 0.244953L68.4507 0.258727L34.8281 56.8478L1.07361 0.332461Z" fill="#41B883"/>
</svg>
